<?xml version="1.0" encoding="UTF-8"?>
<!DOCTYPE svg PUBLIC "-//W3C//DTD SVG 1.1//EN" "http://www.w3.org/Graphics/SVG/1.1/DTD/svg11.dtd">
<svg xmlns="http://www.w3.org/2000/svg" version="1.1" width="512px" height="512px" style="shape-rendering:geometricPrecision; text-rendering:geometricPrecision; image-rendering:optimizeQuality; fill-rule:evenodd; clip-rule:evenodd" xmlns:xlink="http://www.w3.org/1999/xlink">
<g><path style="opacity:0.008" fill="#7f807f" d="M 171.5,-0.5 C 173.833,-0.5 176.167,-0.5 178.5,-0.5C 176.075,3.45729 173.742,3.45729 171.5,-0.5 Z"/></g>
<g><path style="opacity:1" fill="#4c967a" d="M 233.5,-0.5 C 248.5,-0.5 263.5,-0.5 278.5,-0.5C 368.894,10.399 436.727,55.0656 482,133.5C 498.067,165.123 507.9,198.456 511.5,233.5C 511.5,248.5 511.5,263.5 511.5,278.5C 501.196,364.974 459.196,431.14 385.5,477C 362.669,490.333 338.336,499.833 312.5,505.5C 308.167,506.61 303.834,507.61 299.5,508.5C 292.006,509.333 284.672,510.333 277.5,511.5C 262.5,511.5 247.5,511.5 232.5,511.5C 227.694,510.407 222.694,509.741 217.5,509.5C 210.857,508.17 204.191,506.837 197.5,505.5C 196.167,505.167 194.833,504.833 193.5,504.5C 133.661,488.884 84.9946,456.217 47.5,406.5C 45.7481,403.328 43.7481,400.328 41.5,397.5C 17.7417,360.891 3.74167,320.891 -0.5,277.5C -0.5,262.5 -0.5,247.5 -0.5,232.5C 0.468218,230.393 0.801552,228.059 0.5,225.5C 1.499,219.508 2.499,213.508 3.5,207.5C 3.62867,205.784 3.962,204.117 4.5,202.5C 4.5,201.5 4.5,200.5 4.5,199.5C 5.7682,197.095 6.43487,194.428 6.5,191.5C 9.8044,181.251 13.1377,170.917 16.5,160.5C 18.7389,156.351 20.7389,152.018 22.5,147.5C 66.3501,60.6834 136.683,11.3501 233.5,-0.5 Z"/></g>
<g><path style="opacity:0.008" fill="#7f807f" d="M 327.5,-0.5 C 331.5,-0.5 335.5,-0.5 339.5,-0.5C 338.942,0.789915 337.942,1.62325 336.5,2C 333.141,2.77134 329.808,3.60468 326.5,4.5C 325.5,4 324.5,3.5 323.5,3C 324.731,1.59524 326.064,0.428572 327.5,-0.5 Z"/></g>
<g><path style="opacity:1" fill="#fdfdfd" d="M 232.5,23.5 C 231.207,24.842 230.374,26.5087 230,28.5C 229.192,32.0267 229.359,35.3601 230.5,38.5C 232.535,48.2054 238.202,54.8721 247.5,58.5C 248.499,71.1492 248.832,83.8158 248.5,96.5C 252.833,96.5 257.167,96.5 261.5,96.5C 261.5,83.5 261.5,70.5 261.5,57.5C 265.187,56.824 268.52,55.324 271.5,53C 274.821,48.8523 277.488,44.3523 279.5,39.5C 280.643,36.0242 280.81,32.3575 280,28.5C 279.626,26.5087 278.793,24.842 277.5,23.5C 276.399,22.1516 275.399,20.6516 274.5,19C 303.969,20.7005 331.969,28.0339 358.5,41C 346.078,45.9345 340.411,55.1012 341.5,68.5C 331.299,70.9555 321.299,74.1221 311.5,78C 307.131,79.2666 303.297,81.4333 300,84.5C 299.167,100.844 299.334,117.177 300.5,133.5C 303.035,134.9 305.702,135.9 308.5,136.5C 309.209,137.404 310.209,137.737 311.5,137.5C 311.5,121.833 311.5,106.167 311.5,90.5C 322.286,86.7379 333.12,83.0712 344,79.5C 355.645,91.0347 368.479,92.5347 382.5,84C 385.037,81.0937 387.204,77.927 389,74.5C 390.224,69.6141 390.891,64.6141 391,59.5C 417.63,78.4619 439.797,101.629 457.5,129C 438.546,130.608 429.713,140.775 431,159.5C 431.667,161.5 432.333,163.5 433,165.5C 435.827,168.995 438.661,172.495 441.5,176C 436.993,186.517 433.327,197.35 430.5,208.5C 430.167,208.5 429.833,208.5 429.5,208.5C 413.833,208.5 398.167,208.5 382.5,208.5C 382.171,211.228 382.837,213.562 384.5,215.5C 385.167,215.5 385.5,215.833 385.5,216.5C 385.357,218.262 385.691,219.929 386.5,221.5C 402.49,222.666 418.49,222.833 434.5,222C 435.056,221.617 435.389,221.117 435.5,220.5C 437.784,218.639 439.618,216.305 441,213.5C 443.279,206.831 445.446,200.164 447.5,193.5C 449.245,191.967 450.245,189.967 450.5,187.5C 451.371,184.888 452.037,182.221 452.5,179.5C 461.904,179.798 469.57,176.298 475.5,169C 476.332,168.312 476.998,168.479 477.5,169.5C 501.799,236.281 498.299,301.614 467,365.5C 462.117,375.196 456.284,384.196 449.5,392.5C 442.207,379.006 430.874,371.172 415.5,369C 399.5,368.667 383.5,368.333 367.5,368C 360.989,367.607 357.322,364.273 356.5,358C 356.256,355.615 357.089,353.782 359,352.5C 379.712,355.724 399.212,352.224 417.5,342C 434.323,326.923 441.156,308.09 438,285.5C 437.417,282.08 436.25,278.913 434.5,276C 440.298,272.117 446.632,269.283 453.5,267.5C 454.827,263.049 455.494,258.216 455.5,253C 455.499,247.988 455.166,243.155 454.5,238.5C 436.497,238.667 418.497,238.5 400.5,238C 394.44,237.229 388.44,236.396 382.5,235.5C 379.351,234.835 376.018,234.502 372.5,234.5C 366.923,234.368 361.59,235.035 356.5,236.5C 331.671,241.163 316.504,255.829 311,280.5C 308.099,299.035 311.766,316.035 322,331.5C 325.722,335.725 329.888,339.392 334.5,342.5C 310.403,359.169 309.403,377.002 331.5,396C 300.437,407.974 291.937,429.14 306,459.5C 313.813,469.658 323.979,476.158 336.5,479C 289.928,495.525 242.595,497.859 194.5,486C 183.891,483.13 173.557,479.463 163.5,475C 193.293,461.931 206.459,439.098 203,406.5C 199.478,383.314 185.978,370.814 162.5,369C 147.833,368.667 133.167,368.333 118.5,368C 110.335,367.512 106.501,363.345 107,355.5C 107.368,354.09 108.201,353.09 109.5,352.5C 131.858,355.609 152.525,351.109 171.5,339C 183.914,327.211 189.58,312.711 188.5,295.5C 188.694,288.275 187.861,281.275 186,274.5C 191.641,271.675 197.474,269.342 203.5,267.5C 204.827,263.049 205.494,258.216 205.5,253C 205.499,247.988 205.166,243.155 204.5,238.5C 180.396,239.26 156.396,238.26 132.5,235.5C 129.351,234.835 126.018,234.502 122.5,234.5C 116.923,234.368 111.59,235.035 106.5,236.5C 79.8647,241.635 64.698,257.635 61,284.5C 59.6752,299.542 62.3419,313.875 69,327.5C 73.3536,333.354 78.5203,338.354 84.5,342.5C 80.0926,345.804 75.926,349.47 72,353.5C 69.8431,355.817 68.3431,358.484 67.5,361.5C 66.027,364.017 65.3603,366.85 65.5,370C 65.5056,372.033 65.8389,373.866 66.5,375.5C 68.6833,384.356 73.6833,391.189 81.5,396C 77.7143,397.393 74.0477,399.059 70.5,401C 69.0563,401.781 67.723,401.614 66.5,400.5C 25.2943,344.339 10.1277,281.672 21,212.5C 23.7828,197.368 28.1161,182.701 34,168.5C 39.6905,176.594 47.5238,180.26 57.5,179.5C 61.6194,190.601 65.4527,201.935 69,213.5C 70.2775,215.747 71.7775,217.747 73.5,219.5C 73.5,220.167 73.8333,220.5 74.5,220.5C 74.6107,221.117 74.944,221.617 75.5,222C 91.3388,222.828 107.005,222.661 122.5,221.5C 124.213,220.365 124.88,218.698 124.5,216.5C 124.5,215.833 124.833,215.5 125.5,215.5C 127.163,213.562 127.829,211.228 127.5,208.5C 111.833,208.5 96.1667,208.5 80.5,208.5C 80.1667,208.5 79.8333,208.5 79.5,208.5C 76.6657,197.304 72.9991,186.471 68.5,176C 70.6149,172.882 73.1149,170.048 76,167.5C 77.0086,165.975 77.5086,164.308 77.5,162.5C 78.1174,162.389 78.6174,162.056 79,161.5C 79.6667,156.833 79.6667,152.167 79,147.5C 78.6174,146.944 78.1174,146.611 77.5,146.5C 77.6567,145.127 77.49,143.793 77,142.5C 71.2012,134.516 63.3678,130.016 53.5,129C 70.8493,102.149 92.516,79.3153 118.5,60.5C 118.796,71.9254 123.462,81.0921 132.5,88C 134.813,88.662 137.146,89.162 139.5,89.5C 141.134,90.1611 142.967,90.4944 145,90.5C 148.15,90.6397 150.983,89.973 153.5,88.5C 157.511,85.4967 161.511,82.4967 165.5,79.5C 176.746,83.1345 187.746,87.1345 198.5,91.5C 198.167,107.181 198.501,122.848 199.5,138.5C 200.107,138.376 200.44,138.043 200.5,137.5C 203.64,136.354 206.807,135.02 210,133.5C 210.667,117.167 210.667,100.833 210,84.5C 207.079,82.2879 203.912,80.4545 200.5,79C 190.254,75.0416 179.921,71.375 169.5,68C 168.654,60.265 165.988,53.265 161.5,47C 158.328,45.2481 155.328,43.2481 152.5,41C 178.597,27.7455 206.264,20.4121 235.5,19C 234.947,20.8778 233.947,22.3778 232.5,23.5 Z"/></g>
<g><path style="opacity:1" fill="#b2d2c6" d="M 277.5,23.5 C 278.793,24.842 279.626,26.5087 280,28.5C 280.81,32.3575 280.643,36.0242 279.5,39.5C 279.752,34.0116 279.085,28.6782 277.5,23.5 Z"/></g>
<g><path style="opacity:1" fill="#b1d1c5" d="M 232.5,23.5 C 230.961,28.3457 230.294,33.3457 230.5,38.5C 229.359,35.3601 229.192,32.0267 230,28.5C 230.374,26.5087 231.207,24.842 232.5,23.5 Z"/></g>
<g><path style="opacity:1" fill="#b8d5cb" d="M 153.5,88.5 C 150.983,89.973 148.15,90.6397 145,90.5C 142.967,90.4944 141.134,90.1611 139.5,89.5C 144.203,89.5628 148.87,89.2295 153.5,88.5 Z"/></g>
<g><path style="opacity:1" fill="#a1c9b9" d="M 198.5,91.5 C 199.167,106.833 199.833,122.167 200.5,137.5C 200.44,138.043 200.107,138.376 199.5,138.5C 198.501,122.848 198.167,107.181 198.5,91.5 Z"/></g>
<g><path style="opacity:1" fill="#9ec6b6" d="M 311.5,90.5 C 311.5,106.167 311.5,121.833 311.5,137.5C 310.209,137.737 309.209,137.404 308.5,136.5C 310.162,121.361 311.162,106.027 311.5,90.5 Z"/></g>
<g><path style="opacity:1" fill="#89baa8" d="M 282.5,128.5 C 280.884,122.392 279.884,116.059 279.5,109.5C 263.167,109.5 246.833,109.5 230.5,109.5C 230.116,116.059 229.116,122.392 227.5,128.5C 227.885,121.803 228.552,115.136 229.5,108.5C 246.5,108.5 263.5,108.5 280.5,108.5C 281.448,115.136 282.115,121.803 282.5,128.5 Z"/></g>
<g><path style="opacity:1" fill="#4c967b" d="M 282.5,128.5 C 283.26,132.081 283.76,135.748 284,139.5C 284.833,140.5 285.667,141.5 286.5,142.5C 298.657,145.995 310.324,150.662 321.5,156.5C 330.505,151.322 338.839,145.155 346.5,138C 347.5,137.333 348.5,137.333 349.5,138C 360.667,149.167 371.833,160.333 383,171.5C 383.667,172.167 383.667,172.833 383,173.5C 376.522,180.466 370.522,187.799 365,195.5C 364.333,198.167 364.333,200.833 365,203.5C 368.068,206.622 370.402,210.289 372,214.5C 372.225,218.685 373.392,222.518 375.5,226C 360.5,226.667 345.5,226.667 330.5,226C 305.245,186.684 269.911,173.351 224.5,186C 204.783,194.052 189.783,207.385 179.5,226C 164.5,226.667 149.5,226.667 134.5,226C 137.183,216.463 140.85,207.297 145.5,198.5C 140.375,189.521 134.208,181.187 127,173.5C 126.333,172.833 126.333,172.167 127,171.5C 138.167,160.333 149.333,149.167 160.5,138C 166.963,141.275 172.963,145.608 178.5,151C 181.646,152.986 184.813,154.819 188,156.5C 199.145,150.184 210.979,145.35 223.5,142C 224.333,141.167 225.167,140.333 226,139.5C 226.24,135.748 226.74,132.081 227.5,128.5C 229.116,122.392 230.116,116.059 230.5,109.5C 246.833,109.5 263.167,109.5 279.5,109.5C 279.884,116.059 280.884,122.392 282.5,128.5 Z"/></g>
<g><path style="opacity:0.008" fill="#878787" d="M 22.5,147.5 C 20.7389,152.018 18.7389,156.351 16.5,160.5C 15.1401,156.161 15.9735,152.161 19,148.5C 20.0113,147.663 21.1779,147.33 22.5,147.5 Z"/></g>
<g><path style="opacity:1" fill="#75af98" d="M 77.5,146.5 C 78.1174,146.611 78.6174,146.944 79,147.5C 79.6667,152.167 79.6667,156.833 79,161.5C 78.6174,162.056 78.1174,162.389 77.5,162.5C 77.5,157.167 77.5,151.833 77.5,146.5 Z"/></g>
<g><path style="opacity:0.008" fill="#7f807f" d="M -0.5,172.5 C 0.117425,172.611 0.617425,172.944 1,173.5C 2.3192,179.106 3.15253,184.773 3.5,190.5C 2.16667,190.5 0.833333,190.5 -0.5,190.5C -0.5,184.5 -0.5,178.5 -0.5,172.5 Z"/></g>
<g><path style="opacity:0.008" fill="#7f807f" d="M 511.5,172.5 C 511.5,174.833 511.5,177.167 511.5,179.5C 507.5,177.167 507.5,174.833 511.5,172.5 Z"/></g>
<g><path style="opacity:1" fill="#a2c8ba" d="M 450.5,187.5 C 450.245,189.967 449.245,191.967 447.5,193.5C 447.755,191.033 448.755,189.033 450.5,187.5 Z"/></g>
<g><path style="opacity:0.008" fill="#7f807f" d="M 6.5,191.5 C 6.43487,194.428 5.7682,197.095 4.5,199.5C 4.1307,197.559 3.46403,195.725 2.5,194C 3.30787,192.294 4.6412,191.461 6.5,191.5 Z"/></g>
<g><path style="opacity:1" fill="#4d977b" d="M 240.5,193.5 C 272.399,189.506 297.732,200.34 316.5,226C 275.5,226.667 234.5,226.667 193.5,226C 205.264,209.384 220.931,198.55 240.5,193.5 Z"/></g>
<g><path style="opacity:0.012" fill="#999999" d="M -0.5,202.5 C 1.16667,202.5 2.83333,202.5 4.5,202.5C 3.962,204.117 3.62867,205.784 3.5,207.5C 2.04125,207.433 0.707917,207.766 -0.5,208.5C -0.5,206.5 -0.5,204.5 -0.5,202.5 Z"/></g>
<g><path style="opacity:1" fill="#dbeae5" d="M 80.5,208.5 C 96.1667,208.5 111.833,208.5 127.5,208.5C 127.829,211.228 127.163,213.562 125.5,215.5C 125.366,213.708 125.699,212.042 126.5,210.5C 111.167,209.833 95.8333,209.167 80.5,208.5 Z"/></g>
<g><path style="opacity:1" fill="#daeae4" d="M 429.5,208.5 C 414.167,209.167 398.833,209.833 383.5,210.5C 384.301,212.042 384.634,213.708 384.5,215.5C 382.837,213.562 382.171,211.228 382.5,208.5C 398.167,208.5 413.833,208.5 429.5,208.5 Z"/></g>
<g><path style="opacity:0.02" fill="#c3c3c3" d="M 3.5,207.5 C 2.499,213.508 1.499,219.508 0.5,225.5C 0.166667,225.5 -0.166667,225.5 -0.5,225.5C -0.5,219.833 -0.5,214.167 -0.5,208.5C 0.707917,207.766 2.04125,207.433 3.5,207.5 Z"/></g>
<g><path style="opacity:1" fill="#7eb4a0" d="M 79.5,208.5 C 79.8333,208.5 80.1667,208.5 80.5,208.5C 95.8333,209.167 111.167,209.833 126.5,210.5C 110.464,211.151 94.7977,210.484 79.5,208.5 Z"/></g>
<g><path style="opacity:1" fill="#7eb4a0" d="M 429.5,208.5 C 429.833,208.5 430.167,208.5 430.5,208.5C 415.202,210.484 399.536,211.151 383.5,210.5C 398.833,209.833 414.167,209.167 429.5,208.5 Z"/></g>
<g><path style="opacity:1" fill="#71ac95" d="M 124.5,216.5 C 124.88,218.698 124.213,220.365 122.5,221.5C 106.452,221.803 90.4524,221.47 74.5,220.5C 73.8333,220.5 73.5,220.167 73.5,219.5C 89.8083,220.607 106.142,220.773 122.5,220C 123.085,218.698 123.751,217.531 124.5,216.5 Z"/></g>
<g><path style="opacity:1" fill="#c8dfd6" d="M 74.5,220.5 C 90.4524,221.47 106.452,221.803 122.5,221.5C 107.005,222.661 91.3388,222.828 75.5,222C 74.944,221.617 74.6107,221.117 74.5,220.5 Z"/></g>
<g><path style="opacity:1" fill="#c7ded5" d="M 385.5,216.5 C 386.339,217.641 387.006,218.974 387.5,220.5C 403.534,221.803 419.534,221.803 435.5,220.5C 435.389,221.117 435.056,221.617 434.5,222C 418.49,222.833 402.49,222.666 386.5,221.5C 385.691,219.929 385.357,218.262 385.5,216.5 Z"/></g>
<g><path style="opacity:1" fill="#c2dcd2" d="M 132.5,235.5 C 123.815,235.464 115.149,235.797 106.5,236.5C 111.59,235.035 116.923,234.368 122.5,234.5C 126.018,234.502 129.351,234.835 132.5,235.5 Z"/></g>
<g><path style="opacity:1" fill="#c2dbd2" d="M 382.5,235.5 C 373.815,235.464 365.149,235.797 356.5,236.5C 361.59,235.035 366.923,234.368 372.5,234.5C 376.018,234.502 379.351,234.835 382.5,235.5 Z"/></g>
<g><path style="opacity:1" fill="#c8dfd6" d="M 204.5,238.5 C 205.166,243.155 205.499,247.988 205.5,253C 205.494,258.216 204.827,263.049 203.5,267.5C 204.473,257.916 204.806,248.25 204.5,238.5 Z"/></g>
<g><path style="opacity:1" fill="#63a48c" d="M 278.5,239.5 C 261.833,239.5 245.167,239.5 228.5,239.5C 228.5,295.5 228.5,351.5 228.5,407.5C 245.167,407.5 261.833,407.5 278.5,407.5C 261.675,408.497 244.675,408.83 227.5,408.5C 227.5,351.833 227.5,295.167 227.5,238.5C 244.675,238.17 261.675,238.503 278.5,239.5 Z"/></g>
<g><path style="opacity:1" fill="#4b9679" d="M 278.5,239.5 C 278.5,295.5 278.5,351.5 278.5,407.5C 261.833,407.5 245.167,407.5 228.5,407.5C 228.5,351.5 228.5,295.5 228.5,239.5C 245.167,239.5 261.833,239.5 278.5,239.5 Z"/></g>
<g><path style="opacity:1" fill="#bbd8cd" d="M 454.5,238.5 C 455.166,243.155 455.499,247.988 455.5,253C 455.494,258.216 454.827,263.049 453.5,267.5C 454.473,257.916 454.806,248.25 454.5,238.5 Z"/></g>
<g><path style="opacity:1" fill="#fcfdfc" d="M 137.5,276.5 C 139.219,284.381 139.886,292.381 139.5,300.5C 139.956,313.876 133.623,320.376 120.5,320C 118.413,319.208 116.579,318.041 115,316.5C 109.768,305.757 108.101,294.424 110,282.5C 112.719,269.787 120.219,265.621 132.5,270C 134.79,271.777 136.457,273.944 137.5,276.5 Z"/></g>
<g><path style="opacity:1" fill="#fbfdfc" d="M 359.5,300.5 C 359.132,292.713 359.798,285.046 361.5,277.5C 364.712,269.18 370.712,266.346 379.5,269C 384.052,270.588 386.885,273.755 388,278.5C 392.226,291.816 390.892,304.482 384,316.5C 373.656,323.483 365.99,321.15 361,309.5C 360.047,306.568 359.547,303.568 359.5,300.5 Z"/></g>
<g><path style="opacity:1" fill="#a7ccbd" d="M 137.5,276.5 C 138.6,278.277 139.434,280.277 140,282.5C 140.819,288.681 140.653,294.681 139.5,300.5C 139.886,292.381 139.219,284.381 137.5,276.5 Z"/></g>
<g><path style="opacity:1" fill="#a3cabc" d="M 361.5,277.5 C 359.798,285.046 359.132,292.713 359.5,300.5C 358.348,295.015 358.182,289.349 359,283.5C 359.566,281.277 360.4,279.277 361.5,277.5 Z"/></g>
<g><path style="opacity:0.008" fill="#7f807f" d="M -0.5,327.5 C 1.12071,327.787 2.12071,328.787 2.5,330.5C 2.23426,333.65 1.23426,336.317 -0.5,338.5C -0.5,334.833 -0.5,331.167 -0.5,327.5 Z"/></g>
<g><path style="opacity:1" fill="#a1c8b9" d="M 67.5,361.5 C 66.7705,366.13 66.4372,370.797 66.5,375.5C 65.8389,373.866 65.5056,372.033 65.5,370C 65.3603,366.85 66.027,364.017 67.5,361.5 Z"/></g>
<g><path style="opacity:0.008" fill="#858585" d="M 41.5,397.5 C 43.7481,400.328 45.7481,403.328 47.5,406.5C 42.0247,405.42 40.0247,402.42 41.5,397.5 Z"/></g>
<g><path style="opacity:1" fill="#fcfdfd" d="M 106.5,414.5 C 118.505,414.333 130.505,414.5 142.5,415C 148.381,415.622 153.548,417.789 158,421.5C 159.945,428.324 158.112,433.824 152.5,438C 139.554,444.324 125.888,446.658 111.5,445C 106.986,441.909 102.653,438.575 98.5,435C 96.1122,432.95 94.1122,430.616 92.5,428C 95.0954,421.236 99.7621,416.736 106.5,414.5 Z"/></g>
<g><path style="opacity:1" fill="#fcfdfd" d="M 356.5,414.5 C 368.505,414.333 380.505,414.5 392.5,415C 398.381,415.622 403.548,417.789 408,421.5C 409.945,428.324 408.112,433.824 402.5,438C 386.058,445.531 369.058,447.197 351.5,443C 344.46,438.745 341.96,432.578 344,424.5C 346.862,419.465 351.028,416.132 356.5,414.5 Z"/></g>
<g><path style="opacity:0.012" fill="#9c9c9c" d="M 193.5,504.5 C 194.833,504.833 196.167,505.167 197.5,505.5C 199.833,507.5 202.167,509.5 204.5,511.5C 201.167,511.5 197.833,511.5 194.5,511.5C 194.804,510.85 195.137,510.183 195.5,509.5C 194.05,508.15 193.383,506.484 193.5,504.5 Z"/></g>
<g><path style="opacity:0.012" fill="#b0b0b0" d="M 197.5,505.5 C 204.191,506.837 210.857,508.17 217.5,509.5C 217.5,510.167 217.5,510.833 217.5,511.5C 213.167,511.5 208.833,511.5 204.5,511.5C 202.167,509.5 199.833,507.5 197.5,505.5 Z"/></g>
<g><path style="opacity:0.016" fill="#b4b4b4" d="M 312.5,505.5 C 311.27,507.297 310.604,509.297 310.5,511.5C 306.5,511.5 302.5,511.5 298.5,511.5C 298.557,510.391 298.89,509.391 299.5,508.5C 303.834,507.61 308.167,506.61 312.5,505.5 Z"/></g>
<g><path style="opacity:0.008" fill="#7f807f" d="M 182.5,511.5 C 178.833,511.5 175.167,511.5 171.5,511.5C 171.414,510.504 171.748,509.671 172.5,509C 175.817,508.502 179.15,508.335 182.5,508.5C 182.5,509.5 182.5,510.5 182.5,511.5 Z"/></g>
<g><path style="opacity:0.008" fill="#7f807f" d="M 338.5,511.5 C 335.833,511.5 333.167,511.5 330.5,511.5C 333.261,507.569 335.928,507.569 338.5,511.5 Z"/></g>
</svg>
