<?xml version="1.0" encoding="UTF-8"?>
<!DOCTYPE svg PUBLIC "-//W3C//DTD SVG 1.1//EN" "http://www.w3.org/Graphics/SVG/1.1/DTD/svg11.dtd">
<svg xmlns="http://www.w3.org/2000/svg" version="1.1" width="800px" height="600px" style="shape-rendering:geometricPrecision; text-rendering:geometricPrecision; image-rendering:optimizeQuality; fill-rule:evenodd; clip-rule:evenodd" xmlns:xlink="http://www.w3.org/1999/xlink">
<g><path style="opacity:1" fill="#ecfef7" d="M -0.5,-0.5 C 266.167,-0.5 532.833,-0.5 799.5,-0.5C 799.5,199.5 799.5,399.5 799.5,599.5C 532.833,599.5 266.167,599.5 -0.5,599.5C -0.5,399.5 -0.5,199.5 -0.5,-0.5 Z"/></g>
<g><path style="opacity:1" fill="#4d977c" d="M 375.5,50.5 C 448.115,44.8545 507.948,69.5212 555,124.5C 606.367,194.343 612.367,268.01 573,345.5C 537.337,405.113 484.837,438.947 415.5,447C 345.863,450.422 288.696,425.588 244,372.5C 195.247,305.558 187.914,234.224 222,158.5C 255.711,97.6123 306.878,61.6123 375.5,50.5 Z"/></g>
<g><path style="opacity:1" fill="#fcfdfd" d="M 433.5,117.5 C 432.834,123.491 432.5,129.657 432.5,136C 432.504,142.538 433.17,148.705 434.5,154.5C 436.315,155.63 438.315,156.296 440.5,156.5C 441.209,157.404 442.209,157.737 443.5,157.5C 443.187,145.087 443.521,132.753 444.5,120.5C 452.252,117.134 460.252,114.134 468.5,111.5C 477.359,122.133 487.359,123.299 498.5,115C 503.18,110.136 505.513,104.302 505.5,97.5C 525.924,111.257 542.591,128.59 555.5,149.5C 540.716,152.1 534.216,160.767 536,175.5C 537.698,179.863 540.198,183.696 543.5,187C 540.344,195.472 537.344,203.972 534.5,212.5C 522.5,212.5 510.5,212.5 498.5,212.5C 498.263,213.791 498.596,214.791 499.5,215.5C 500.162,217.47 500.828,219.47 501.5,221.5C 513.486,222.666 525.486,222.833 537.5,222C 540.381,220.749 542.214,218.583 543,215.5C 545.975,207.049 549.141,198.716 552.5,190.5C 559.983,189.513 566.15,186.179 571,180.5C 590.203,230.501 588.537,279.834 566,328.5C 561.589,337.663 556.422,346.329 550.5,354.5C 545.803,346.639 539.137,341.139 530.5,338C 514.8,337.072 499.133,336.072 483.5,335C 481.508,334.426 480.008,333.259 479,331.5C 478.503,328.854 478.336,326.187 478.5,323.5C 489.215,324.759 499.881,324.259 510.5,322C 531.386,315.604 541.719,301.437 541.5,279.5C 541.61,274.274 540.61,269.274 538.5,264.5C 542.991,261.218 547.991,258.885 553.5,257.5C 554.492,250.018 554.825,242.352 554.5,234.5C 540.5,234.5 526.5,234.5 512.5,234.5C 499.867,232.198 487.2,232.032 474.5,234C 458.405,238.429 447.905,248.596 443,264.5C 440.13,279.99 442.797,294.323 451,307.5C 453.869,310.704 457.035,313.537 460.5,316C 443.004,328.457 442.004,342.124 457.5,357C 445.632,360.868 437.799,368.701 434,380.5C 431.845,401.358 440.678,415.191 460.5,422C 415.808,438.183 371.474,437.183 327.5,419C 357.211,404.363 366.044,381.529 354,350.5C 348.37,343.533 341.203,339.033 332.5,337C 319.167,336.667 305.833,336.333 292.5,336C 284.585,334.328 282.585,330.161 286.5,323.5C 303.325,325.919 318.992,322.752 333.5,314C 347.195,299.744 350.862,283.244 344.5,264.5C 348.991,261.218 353.991,258.885 359.5,257.5C 360.492,250.018 360.825,242.352 360.5,234.5C 346.5,234.5 332.5,234.5 318.5,234.5C 311.345,233.77 304.178,233.103 297,232.5C 262.408,233.422 246.408,251.089 249,285.5C 250.057,298.451 255.89,308.618 266.5,316C 248.894,328.344 247.894,342.011 263.5,357C 260.535,359.49 257.202,360.824 253.5,361C 230.652,331.473 217.819,297.973 215,260.5C 212.968,233.027 217.301,206.694 228,181.5C 232.594,187.755 238.761,190.422 246.5,189.5C 249.418,198.423 252.251,207.423 255,216.5C 256.141,218.609 257.641,220.442 259.5,222C 271.833,222.667 284.167,222.667 296.5,222C 297.587,219.433 298.587,216.933 299.5,214.5C 300.043,214.44 300.376,214.107 300.5,213.5C 288.185,212.501 275.851,212.168 263.5,212.5C 260.752,203.916 257.752,195.416 254.5,187C 257.771,183.717 260.271,179.884 262,175.5C 264.262,160.935 258.096,152.935 243.5,151.5C 255.539,129.618 272.039,111.618 293,97.5C 293.272,106.543 297.106,113.71 304.5,119C 308.761,120.363 313.095,120.696 317.5,120C 321.969,117.834 326.136,115.334 330,112.5C 338.68,115.286 347.18,118.286 355.5,121.5C 355.5,133.5 355.5,145.5 355.5,157.5C 357.786,157.405 359.786,156.738 361.5,155.5C 362.209,154.596 363.209,154.263 364.5,154.5C 364.832,141.483 364.499,128.483 363.5,115.5C 353.568,111.301 343.568,107.301 333.5,103.5C 333.154,94.119 328.821,87.4523 320.5,83.5C 319.479,82.9984 319.312,82.3317 320,81.5C 340.178,71.9019 361.344,66.5685 383.5,65.5C 379.911,70.2723 378.745,75.6056 380,81.5C 382.041,85.0838 384.208,88.5838 386.5,92C 388.818,93.9927 391.484,95.1594 394.5,95.5C 394.5,105.5 394.5,115.5 394.5,125.5C 397.5,125.5 400.5,125.5 403.5,125.5C 403.334,115.494 403.5,105.494 404,95.5C 418.357,89.2598 421.857,79.2598 414.5,65.5C 436.918,66.4877 458.251,71.9877 478.5,82C 469.802,86.5306 465.469,93.6973 465.5,103.5C 457.435,105.694 449.435,108.194 441.5,111C 438.064,112.274 435.397,114.441 433.5,117.5 Z"/></g>
<g><path style="opacity:1" fill="#c4dcd4" d="M 433.5,117.5 C 433.187,129.913 433.521,142.247 434.5,154.5C 433.17,148.705 432.504,142.538 432.5,136C 432.5,129.657 432.834,123.491 433.5,117.5 Z"/></g>
<g><path style="opacity:1" fill="#82b7a2" d="M 355.5,121.5 C 356.331,132.993 356.831,144.659 357,156.5C 358.356,155.62 359.856,155.286 361.5,155.5C 359.786,156.738 357.786,157.405 355.5,157.5C 355.5,145.5 355.5,133.5 355.5,121.5 Z"/></g>
<g><path style="opacity:1" fill="#cce1d9" d="M 444.5,120.5 C 443.521,132.753 443.187,145.087 443.5,157.5C 442.209,157.737 441.209,157.404 440.5,156.5C 441.833,144.5 443.167,132.5 444.5,120.5 Z"/></g>
<g><path style="opacity:1" fill="#7eb3a0" d="M 418.5,136.5 C 405.913,135.52 393.246,135.187 380.5,135.5C 380.101,139.011 379.434,142.344 378.5,145.5C 378.423,141.785 378.756,138.119 379.5,134.5C 392.876,133.852 405.876,134.519 418.5,136.5 Z"/></g>
<g><path style="opacity:1" fill="#4c967b" d="M 418.5,136.5 C 418.5,137.167 418.5,137.833 418.5,138.5C 418.28,143.1 418.946,147.433 420.5,151.5C 419.814,155.287 420.814,158.454 423.5,161C 432.697,164.01 441.697,167.51 450.5,171.5C 457.193,167.661 463.526,163.161 469.5,158C 470.5,157.333 471.5,157.333 472.5,158C 481,166.5 489.5,175 498,183.5C 498.667,184.167 498.667,184.833 498,185.5C 492.184,191.155 487.351,197.488 483.5,204.5C 487.223,210.394 489.889,216.727 491.5,223.5C 480.549,225.478 469.216,226.144 457.5,225.5C 440.163,198.432 415.497,187.266 383.5,192C 364.596,197.435 350.262,208.602 340.5,225.5C 329.167,225.5 317.833,225.5 306.5,225.5C 306.5,224.5 306.5,223.5 306.5,222.5C 308.617,216.265 311.284,210.265 314.5,204.5C 310.088,197.252 305.088,190.418 299.5,184C 308.145,175.355 316.812,166.688 325.5,158C 326.5,157.333 327.5,157.333 328.5,158C 334.112,163.377 340.279,167.877 347,171.5C 356.852,166.986 366.686,162.652 376.5,158.5C 378.054,154.433 378.72,150.1 378.5,145.5C 379.434,142.344 380.101,139.011 380.5,135.5C 393.246,135.187 405.913,135.52 418.5,136.5 Z"/></g>
<g><path style="opacity:1" fill="#8dbdab" d="M 418.5,138.5 C 420.054,142.567 420.72,146.9 420.5,151.5C 418.946,147.433 418.28,143.1 418.5,138.5 Z"/></g>
<g><path style="opacity:1" fill="#bed9cf" d="M 378.5,145.5 C 378.72,150.1 378.054,154.433 376.5,158.5C 376.28,153.9 376.946,149.567 378.5,145.5 Z"/></g>
<g><path style="opacity:1" fill="#4e977c" d="M 445.5,224.5 C 415.003,225.664 384.336,225.831 353.5,225C 354.252,224.329 354.586,223.496 354.5,222.5C 359.67,215.062 366.337,209.229 374.5,205C 396.88,196.063 417.547,199.063 436.5,214C 440.085,217.078 443.085,220.578 445.5,224.5 Z"/></g>
<g><path style="opacity:1" fill="#a0c8b9" d="M 263.5,212.5 C 275.851,212.168 288.185,212.501 300.5,213.5C 300.376,214.107 300.043,214.44 299.5,214.5C 287.5,213.833 275.5,213.167 263.5,212.5 Z"/></g>
<g><path style="opacity:1" fill="#9dc6b7" d="M 534.5,212.5 C 522.631,212.841 510.964,213.841 499.5,215.5C 498.596,214.791 498.263,213.791 498.5,212.5C 510.5,212.5 522.5,212.5 534.5,212.5 Z"/></g>
<g><path style="opacity:1" fill="#96c2b2" d="M 306.5,222.5 C 306.5,223.5 306.5,224.5 306.5,225.5C 317.833,225.5 329.167,225.5 340.5,225.5C 329.012,226.495 317.345,226.828 305.5,226.5C 305.232,224.901 305.566,223.568 306.5,222.5 Z"/></g>
<g><path style="opacity:1" fill="#95c1b1" d="M 354.5,222.5 C 354.586,223.496 354.252,224.329 353.5,225C 384.336,225.831 415.003,225.664 445.5,224.5C 446.043,224.56 446.376,224.893 446.5,225.5C 414.833,226.833 383.167,226.833 351.5,225.5C 352.188,224.145 353.188,223.145 354.5,222.5 Z"/></g>
<g><path style="opacity:1" fill="#94c0b0" d="M 491.5,223.5 C 492.404,224.209 492.737,225.209 492.5,226.5C 480.655,226.828 468.988,226.495 457.5,225.5C 469.216,226.144 480.549,225.478 491.5,223.5 Z"/></g>
<g><path style="opacity:1" fill="#a3cabb" d="M 318.5,234.5 C 332.5,234.5 346.5,234.5 360.5,234.5C 360.825,242.352 360.492,250.018 359.5,257.5C 359.5,250.167 359.5,242.833 359.5,235.5C 345.656,235.829 331.99,235.496 318.5,234.5 Z"/></g>
<g><path style="opacity:1" fill="#a7cdbe" d="M 512.5,234.5 C 526.5,234.5 540.5,234.5 554.5,234.5C 554.825,242.352 554.492,250.018 553.5,257.5C 553.5,250.167 553.5,242.833 553.5,235.5C 539.656,235.829 525.99,235.496 512.5,234.5 Z"/></g>
<g><path style="opacity:1" fill="#92bfae" d="M 417.5,235.5 C 404.5,235.5 391.5,235.5 378.5,235.5C 378.5,279.167 378.5,322.833 378.5,366.5C 391.5,366.5 404.5,366.5 417.5,366.5C 404.344,367.496 391.01,367.829 377.5,367.5C 377.5,323.167 377.5,278.833 377.5,234.5C 391.01,234.171 404.344,234.504 417.5,235.5 Z"/></g>
<g><path style="opacity:1" fill="#4b967a" d="M 417.5,235.5 C 417.5,279.167 417.5,322.833 417.5,366.5C 404.5,366.5 391.5,366.5 378.5,366.5C 378.5,322.833 378.5,279.167 378.5,235.5C 391.5,235.5 404.5,235.5 417.5,235.5 Z"/></g>
<g><path style="opacity:1" fill="#fbfdfc" d="M 307.5,263.5 C 309.202,271.046 309.868,278.713 309.5,286.5C 308.248,295.963 302.915,299.796 293.5,298C 288.743,293.882 286.409,288.715 286.5,282.5C 286.392,277.13 286.725,271.797 287.5,266.5C 289.958,259.27 294.958,256.77 302.5,259C 304.66,259.996 306.327,261.496 307.5,263.5 Z"/></g>
<g><path style="opacity:1" fill="#fafcfb" d="M 486.5,258.5 C 495.673,256.827 501.173,260.494 503,269.5C 504.336,278.168 503.336,286.502 500,294.5C 495.8,298.714 490.966,299.548 485.5,297C 483.623,294.749 482.123,292.249 481,289.5C 478.729,280.7 479.063,272.033 482,263.5C 483.707,261.963 485.207,260.296 486.5,258.5 Z"/></g>
<g><path style="opacity:1" fill="#a5cbbc" d="M 307.5,263.5 C 308.6,265.277 309.434,267.277 310,269.5C 310.818,275.349 310.652,281.015 309.5,286.5C 309.868,278.713 309.202,271.046 307.5,263.5 Z"/></g>
<g><path style="opacity:1" fill="#8fbeac" d="M 287.5,266.5 C 286.725,271.797 286.392,277.13 286.5,282.5C 285.837,280.527 285.504,278.361 285.5,276C 285.328,272.523 285.994,269.356 287.5,266.5 Z"/></g>
<g><path style="opacity:1" fill="#c5ddd4" d="M 503.5,372.5 C 493.801,372.275 484.134,372.608 474.5,373.5C 475.263,372.732 476.263,372.232 477.5,372C 486.343,371.176 495.01,371.343 503.5,372.5 Z"/></g>
<g><path style="opacity:1" fill="#fafcfb" d="M 283.5,371.5 C 294.222,371.125 304.889,371.625 315.5,373C 322.642,373.793 325.476,377.627 324,384.5C 319.458,390.692 313.292,394.192 305.5,395C 299.167,395.667 292.833,395.667 286.5,395C 281.462,391.295 277.129,386.962 273.5,382C 274.966,376.701 278.3,373.201 283.5,371.5 Z"/></g>
<g><path style="opacity:1" fill="#fcfdfc" d="M 503.5,372.5 C 508.972,372.407 513.805,374.074 518,377.5C 518.89,385.535 515.39,390.701 507.5,393C 497.628,395.375 487.628,396.042 477.5,395C 469.362,392.865 466.195,387.698 468,379.5C 469.406,376.591 471.572,374.591 474.5,373.5C 484.134,372.608 493.801,372.275 503.5,372.5 Z"/></g>
<g><path style="opacity:1" fill="#549c81" d="M 300.5,449.5 C 304.525,448.578 306.859,450.078 307.5,454C 305.301,457.436 303.968,461.27 303.5,465.5C 302.828,461.081 301.161,457.247 298.5,454C 298.519,452.167 299.185,450.667 300.5,449.5 Z"/></g>
<g><path style="opacity:1" fill="#559d82" d="M 279.5,455.5 C 283.71,454.712 286.377,456.379 287.5,460.5C 289.729,461.577 292.063,462.244 294.5,462.5C 294.823,466.226 294.489,469.893 293.5,473.5C 292.833,470.5 292.167,467.5 291.5,464.5C 289.833,463.833 288.167,463.167 286.5,462.5C 281.933,465.86 278.933,464.86 277.5,459.5C 277.752,457.927 278.418,456.594 279.5,455.5 Z"/></g>
<g><path style="opacity:1" fill="#559c82" d="M 321.5,455.5 C 327,454.831 329.167,457.165 328,462.5C 325.205,465.113 322.371,465.113 319.5,462.5C 317.833,463.167 316.167,463.833 314.5,464.5C 313.833,467.167 313.167,469.833 312.5,472.5C 309.392,465.098 311.725,461.098 319.5,460.5C 319.392,458.486 320.058,456.82 321.5,455.5 Z"/></g>
<g><path style="opacity:1" fill="#529a7f" d="M 298.5,467.5 C 301.518,467.335 304.518,467.502 307.5,468C 308.113,470.147 308.779,472.314 309.5,474.5C 310.795,475.098 312.128,475.598 313.5,476C 316.51,476.248 319.176,475.582 321.5,474C 323.5,476 325.5,478 327.5,480C 324.371,483.018 323.704,486.518 325.5,490.5C 322.813,490.664 320.146,490.497 317.5,490C 311.493,481.665 303.827,479.665 294.5,484C 292.649,485.684 290.982,487.517 289.5,489.5C 286.572,490.484 283.572,490.817 280.5,490.5C 280.477,488.4 281.144,486.567 282.5,485C 282.07,483.566 281.236,482.399 280,481.5C 280.293,477.997 282.126,475.331 285.5,473.5C 286.929,474.935 288.595,475.935 290.5,476.5C 292.828,475.67 295.162,474.837 297.5,474C 298.423,471.959 298.756,469.792 298.5,467.5 Z"/></g>
<g><path style="opacity:1" fill="#569d82" d="M 262.5,472.5 C 269.393,471.858 271.393,474.858 268.5,481.5C 268.899,483.197 269.399,484.863 270,486.5C 272.8,487.125 275.634,487.792 278.5,488.5C 271.16,491.288 267.16,488.954 266.5,481.5C 260.498,480.461 259.165,477.461 262.5,472.5 Z"/></g>
<g><path style="opacity:1" fill="#549c81" d="M 338.5,472.5 C 344,471.831 346.167,474.165 345,479.5C 343.559,480.87 341.892,481.87 340,482.5C 339.358,484.762 338.525,486.929 337.5,489C 333.967,489.903 330.633,489.57 327.5,488C 330.482,487.502 333.482,487.335 336.5,487.5C 336.724,485.213 337.391,483.047 338.5,481C 335.894,478.113 335.894,475.28 338.5,472.5 Z"/></g>
<g><path style="opacity:1" fill="#1f201f" d="M 440.5,478.5 C 447.486,478.331 449.153,481.164 445.5,487C 438.416,487.475 436.749,484.642 440.5,478.5 Z"/></g>
<g><path style="opacity:1" fill="#b2beba" d="M 392.5,479.5 C 392.666,484.511 392.499,489.511 392,494.5C 391.283,493.956 390.783,493.289 390.5,492.5C 391.167,488.167 391.833,483.833 392.5,479.5 Z"/></g>
<g><path style="opacity:1" fill="#202020" d="M 392.5,479.5 C 395.167,479.5 397.833,479.5 400.5,479.5C 400.5,494.167 400.5,508.833 400.5,523.5C 398.167,523.5 395.833,523.5 393.5,523.5C 393.649,522.448 393.483,521.448 393,520.5C 383.925,526.981 377.925,524.647 375,513.5C 372.949,504.65 375.449,497.484 382.5,492C 385.221,491.398 387.887,491.565 390.5,492.5C 390.783,493.289 391.283,493.956 392,494.5C 392.499,489.511 392.666,484.511 392.5,479.5 Z"/></g>
<g><path style="opacity:1" fill="#505552" d="M 424.5,479.5 C 424.827,484.544 424.494,489.544 423.5,494.5C 422.893,494.376 422.56,494.043 422.5,493.5C 423.167,488.833 423.833,484.167 424.5,479.5 Z"/></g>
<g><path style="opacity:1" fill="#1d1e1d" d="M 424.5,479.5 C 426.833,479.5 429.167,479.5 431.5,479.5C 431.5,494.167 431.5,508.833 431.5,523.5C 428.534,523.89 425.868,523.223 423.5,521.5C 415.505,526.71 410.005,524.71 407,515.5C 405.859,508.916 406.526,502.583 409,496.5C 412.662,491.335 417.162,490.335 422.5,493.5C 422.56,494.043 422.893,494.376 423.5,494.5C 424.494,489.544 424.827,484.544 424.5,479.5 Z"/></g>
<g><path style="opacity:1" fill="#1c1c1c" d="M 461.5,479.5 C 461.169,487.86 461.502,496.193 462.5,504.5C 463.107,504.376 463.44,504.043 463.5,503.5C 465.451,499.771 467.784,496.271 470.5,493C 473.227,492.182 475.894,492.348 478.5,493.5C 475.406,497.252 472.739,501.252 470.5,505.5C 473.228,511.288 476.228,516.955 479.5,522.5C 476.894,523.652 474.227,523.818 471.5,523C 469.626,519.419 467.626,515.919 465.5,512.5C 461.848,515.176 460.514,518.842 461.5,523.5C 459.167,523.5 456.833,523.5 454.5,523.5C 454.5,508.833 454.5,494.167 454.5,479.5C 456.833,479.5 459.167,479.5 461.5,479.5 Z"/></g>
<g><path style="opacity:1" fill="#8f9895" d="M 461.5,479.5 C 462.167,487.5 462.833,495.5 463.5,503.5C 463.44,504.043 463.107,504.376 462.5,504.5C 461.502,496.193 461.169,487.86 461.5,479.5 Z"/></g>
<g><path style="opacity:1" fill="#559d82" d="M 297.5,484.5 C 304.329,483.114 309.995,484.947 314.5,490C 306.833,490.667 299.167,490.667 291.5,490C 293.396,487.932 295.396,486.099 297.5,484.5 Z"/></g>
<g><path style="opacity:1" fill="#5a9f85" d="M 488.5,490.5 C 492.122,489.924 495.122,490.924 497.5,493.5C 497.113,494.72 496.28,495.387 495,495.5C 492.069,493.92 489.736,494.587 488,497.5C 487.183,500.964 487.517,504.298 489,507.5C 491.132,508.78 493.298,508.78 495.5,507.5C 496.5,507.833 497.167,508.5 497.5,509.5C 493.425,514.786 489.258,514.786 485,509.5C 480.844,502.067 482.011,495.733 488.5,490.5 Z"/></g>
<g><path style="opacity:1" fill="#599f84" d="M 505.5,490.5 C 513.056,489.887 517.056,493.387 517.5,501C 517.561,507.742 514.394,511.909 508,513.5C 502.35,511.397 499.517,507.23 499.5,501C 499.852,496.451 501.852,492.951 505.5,490.5 Z"/></g>
<g><path style="opacity:1" fill="#529a7f" d="M 520.5,491.5 C 521.833,491.5 523.167,491.5 524.5,491.5C 524.5,498.5 524.5,505.5 524.5,512.5C 523.167,512.5 521.833,512.5 520.5,512.5C 520.5,505.5 520.5,498.5 520.5,491.5 Z"/></g>
<g><path style="opacity:1" fill="#a0cebc" d="M 520.5,491.5 C 521.919,490.549 523.585,490.216 525.5,490.5C 525.825,498.019 525.492,505.352 524.5,512.5C 524.5,505.5 524.5,498.5 524.5,491.5C 523.167,491.5 521.833,491.5 520.5,491.5 Z"/></g>
<g><path style="opacity:1" fill="#549c81" d="M 529.5,490.5 C 531.167,490.5 532.833,490.5 534.5,490.5C 536.037,495.247 537.87,499.913 540,504.5C 540.499,499.845 540.666,495.179 540.5,490.5C 541.833,490.5 543.167,490.5 544.5,490.5C 544.5,497.833 544.5,505.167 544.5,512.5C 542.712,512.785 541.045,512.452 539.5,511.5C 537.941,507.381 536.107,503.381 534,499.5C 533.501,503.821 533.334,508.154 533.5,512.5C 532.167,512.5 530.833,512.5 529.5,512.5C 529.5,505.167 529.5,497.833 529.5,490.5 Z"/></g>
<g><path style="opacity:1" fill="#4f997d" d="M 293.5,527.5 C 293.5,528.5 293.5,529.5 293.5,530.5C 289.561,536.106 284.061,538.772 277,538.5C 266.812,538.667 263.145,534 266,524.5C 267.255,523.789 268.421,522.956 269.5,522C 266.575,518.304 266.908,514.971 270.5,512C 266.363,507.413 265.529,502.247 268,496.5C 269.214,494.951 270.714,493.785 272.5,493C 279.492,492.5 286.492,492.334 293.5,492.5C 293.5,494.5 293.5,496.5 293.5,498.5C 292.5,498.5 291.5,498.5 290.5,498.5C 291.618,509.389 286.618,515.056 275.5,515.5C 275.709,516.086 276.043,516.586 276.5,517C 281.282,517.119 285.949,517.785 290.5,519C 292.93,521.305 293.93,524.138 293.5,527.5 Z"/></g>
<g><path style="opacity:1" fill="#4f987d" d="M 340.5,527.5 C 340.5,528.167 340.5,528.833 340.5,529.5C 340.5,529.833 340.5,530.167 340.5,530.5C 336.725,536.47 331.225,539.136 324,538.5C 317.404,539.46 313.238,536.793 311.5,530.5C 311.5,529.5 311.5,528.5 311.5,527.5C 313.114,525.544 314.781,523.544 316.5,521.5C 313.733,518.214 314.066,515.214 317.5,512.5C 313.396,507.665 312.563,502.332 315,496.5C 316.214,494.951 317.714,493.785 319.5,493C 326.492,492.5 333.492,492.334 340.5,492.5C 340.5,494.5 340.5,496.5 340.5,498.5C 339.5,498.5 338.5,498.5 337.5,498.5C 338.618,509.389 333.618,515.056 322.5,515.5C 322.709,516.086 323.043,516.586 323.5,517C 328.282,517.119 332.949,517.785 337.5,519C 340.125,521.196 341.125,524.03 340.5,527.5 Z"/></g>
<g><path style="opacity:1" fill="#222323" d="M 353.5,491.5 C 361.291,490.146 366.457,493.146 369,500.5C 369.5,508.159 369.666,515.826 369.5,523.5C 367.167,523.5 364.833,523.5 362.5,523.5C 362.719,522.325 362.386,521.325 361.5,520.5C 352.94,527.29 347.607,525.29 345.5,514.5C 347.656,507.231 352.656,503.564 360.5,503.5C 360.67,502.178 360.337,501.011 359.5,500C 356.084,499.107 352.917,499.607 350,501.5C 348.637,500.107 347.804,498.441 347.5,496.5C 349.122,494.359 351.122,492.692 353.5,491.5 Z"/></g>
<g><path style="opacity:1" fill="#539b80" d="M 297.5,492.5 C 300.833,492.5 304.167,492.5 307.5,492.5C 307.5,503.167 307.5,513.833 307.5,524.5C 304.167,524.5 300.833,524.5 297.5,524.5C 297.5,513.833 297.5,503.167 297.5,492.5 Z"/></g>
<g><path style="opacity:1" fill="#222322" d="M 438.5,492.5 C 441.167,492.5 443.833,492.5 446.5,492.5C 446.5,502.833 446.5,513.167 446.5,523.5C 443.833,523.5 441.167,523.5 438.5,523.5C 438.5,513.167 438.5,502.833 438.5,492.5 Z"/></g>
<g><path style="opacity:1" fill="#e4f9f1" d="M 506.5,494.5 C 509.238,493.965 511.072,494.965 512,497.5C 512.667,500.167 512.667,502.833 512,505.5C 509.667,509.5 507.333,509.5 505,505.5C 504.013,501.525 504.513,497.859 506.5,494.5 Z"/></g>
<g><path style="opacity:1" fill="#e0f6ee" d="M 276.5,498.5 C 278.144,498.286 279.644,498.62 281,499.5C 281.769,502.099 281.602,504.599 280.5,507C 278.888,507.72 277.388,507.554 276,506.5C 275.278,503.739 275.445,501.073 276.5,498.5 Z"/></g>
<g><path style="opacity:1" fill="#dff6ed" d="M 323.5,498.5 C 325.144,498.286 326.644,498.62 328,499.5C 328.769,502.099 328.602,504.599 327.5,507C 325.567,507.783 324.067,507.283 323,505.5C 322.297,503.071 322.463,500.738 323.5,498.5 Z"/></g>
<g><path style="opacity:1" fill="#dff0e9" d="M 385.5,499.5 C 391.323,498.842 393.656,501.509 392.5,507.5C 394.16,513.991 391.826,516.825 385.5,516C 381.535,510.471 381.535,504.971 385.5,499.5 Z"/></g>
<g><path style="opacity:1" fill="#e5f6f0" d="M 416.5,499.5 C 418.792,499.244 420.959,499.577 423,500.5C 423.804,505.751 423.637,510.918 422.5,516C 419.166,517.212 416.666,516.379 415,513.5C 414.034,508.61 414.534,503.943 416.5,499.5 Z"/></g>
<g><path style="opacity:1" fill="#d3e3dd" d="M 356.5,509.5 C 358.167,509.5 359.833,509.5 361.5,509.5C 362.261,515.089 359.928,517.589 354.5,517C 353.941,516.275 353.608,515.442 353.5,514.5C 354.092,512.577 355.092,510.911 356.5,509.5 Z"/></g>
<g><path style="opacity:1" fill="#e0f6ee" d="M 274.5,525.5 C 277.187,525.336 279.854,525.503 282.5,526C 284.107,527.049 284.773,528.549 284.5,530.5C 280.869,531.412 277.203,531.579 273.5,531C 272.243,528.924 272.576,527.09 274.5,525.5 Z"/></g>
<g><path style="opacity:1" fill="#dbf4ea" d="M 321.5,525.5 C 324.518,525.335 327.518,525.502 330.5,526C 333.15,528.082 332.816,529.749 329.5,531C 326.833,531.667 324.167,531.667 321.5,531C 319.103,529.29 319.103,527.456 321.5,525.5 Z"/></g>
<g><path style="opacity:1" fill="#242525" d="M 293.5,527.5 C 299.5,527.5 305.5,527.5 311.5,527.5C 311.5,528.5 311.5,529.5 311.5,530.5C 305.5,530.5 299.5,530.5 293.5,530.5C 293.5,529.5 293.5,528.5 293.5,527.5 Z"/></g>
<g><path style="opacity:1" fill="#191919" d="M 340.5,527.5 C 386.833,527.5 433.167,527.5 479.5,527.5C 433.512,529.495 387.179,530.162 340.5,529.5C 340.5,528.833 340.5,528.167 340.5,527.5 Z"/></g>
<g><path style="opacity:1" fill="#484c4b" d="M 479.5,527.5 C 480.404,528.209 480.737,529.209 480.5,530.5C 433.833,530.5 387.167,530.5 340.5,530.5C 340.5,530.167 340.5,529.833 340.5,529.5C 387.179,530.162 433.512,529.495 479.5,527.5 Z"/></g>
<g><path style="opacity:1" fill="#9aa5a1" d="M 406.5,535.5 C 404.631,537.635 403.964,540.302 404.5,543.5C 403.523,540.713 403.19,537.713 403.5,534.5C 404.791,534.263 405.791,534.596 406.5,535.5 Z"/></g>
<g><path style="opacity:1" fill="#a1aca7" d="M 409.5,535.5 C 410.209,534.596 411.209,534.263 412.5,534.5C 412.205,536.735 412.539,538.735 413.5,540.5C 413.409,542.698 414.075,543.031 415.5,541.5C 415.03,542.693 414.03,543.36 412.5,543.5C 410.886,543.197 409.552,542.53 408.5,541.5C 409.867,538.868 410.701,539.202 411,542.5C 411.167,541.333 411.333,540.167 411.5,539C 411.392,537.319 410.725,536.152 409.5,535.5 Z"/></g>
<g><path style="opacity:1" fill="#8e9894" d="M 442.5,535.5 C 442.337,537.857 442.503,540.19 443,542.5C 443.278,541.584 443.778,540.918 444.5,540.5C 444.5,541.5 444.5,542.5 444.5,543.5C 443.5,543.5 442.5,543.5 441.5,543.5C 441.194,540.615 441.527,537.948 442.5,535.5 Z"/></g>
<g><path style="opacity:1" fill="#6d7572" d="M 451.5,535.5 C 450.167,537.833 450.167,540.167 451.5,542.5C 451.44,543.043 451.107,543.376 450.5,543.5C 449.167,540.5 449.167,537.5 450.5,534.5C 451.107,534.624 451.44,534.957 451.5,535.5 Z"/></g>
<g><path style="opacity:1" fill="#3f4241" d="M 459.5,534.5 C 465.643,535.026 466.976,537.86 463.5,543C 461.888,543.72 460.388,543.554 459,542.5C 458.278,539.739 458.445,537.073 459.5,534.5 Z"/></g>
<g><path style="opacity:1" fill="#79817e" d="M 471.5,535.5 C 470.167,535.5 468.833,535.5 467.5,535.5C 467.5,537.833 467.5,540.167 467.5,542.5C 468.833,542.5 470.167,542.5 471.5,542.5C 470.081,543.451 468.415,543.784 466.5,543.5C 466.5,540.5 466.5,537.5 466.5,534.5C 468.415,534.216 470.081,534.549 471.5,535.5 Z"/></g>
<g><path style="opacity:1" fill="#7b8380" d="M 479.5,536.5 C 478.432,535.566 477.099,535.232 475.5,535.5C 475.153,538.341 475.487,540.341 476.5,541.5C 477.978,541.238 479.311,541.571 480.5,542.5C 478.604,543.466 476.604,543.799 474.5,543.5C 474.5,540.5 474.5,537.5 474.5,534.5C 476.604,534.201 478.604,534.534 480.5,535.5C 480.376,536.107 480.043,536.44 479.5,536.5 Z"/></g>
<g><path style="opacity:1" fill="#1c1d1d" d="M 479.5,536.5 C 475.544,537.053 475.544,537.886 479.5,539C 477.881,539.236 476.881,540.069 476.5,541.5C 475.487,540.341 475.153,538.341 475.5,535.5C 477.099,535.232 478.432,535.566 479.5,536.5 Z"/></g>
<g><path style="opacity:1" fill="#303231" d="M 427.5,535.5 C 429.735,535.205 431.735,535.539 433.5,536.5C 431.938,538.372 430.938,540.705 430.5,543.5C 429.908,540.564 428.908,537.897 427.5,535.5 Z"/></g>
<g><path style="opacity:1" fill="#d1e1db" d="M 460.5,536.5 C 463.084,537.048 464.084,538.715 463.5,541.5C 459.716,541.475 458.716,539.808 460.5,536.5 Z"/></g>
<g><path style="opacity:1" fill="#3b3e3d" d="M 422.5,534.5 C 427.658,535.484 427.658,536.317 422.5,537C 424.327,537.899 425.66,539.233 426.5,541C 425.499,543.502 423.833,544.002 421.5,542.5C 422.376,541.749 423.376,541.249 424.5,541C 420.381,539.641 419.715,537.474 422.5,534.5 Z"/></g>
<g><path style="opacity:1" fill="#1c1d1c" d="M 437.5,541.5 C 437.158,542.338 436.492,542.672 435.5,542.5C 435.5,540.167 435.5,537.833 435.5,535.5C 440.041,535.331 440.374,535.998 436.5,537.5C 437.376,538.251 438.376,538.751 439.5,539C 438.376,539.249 437.376,539.749 436.5,540.5C 436.624,541.107 436.957,541.44 437.5,541.5 Z"/></g>
<g><path style="opacity:1" fill="#444746" d="M 444.5,540.5 C 443.778,540.918 443.278,541.584 443,542.5C 442.503,540.19 442.337,537.857 442.5,535.5C 444.489,534.113 446.322,534.447 448,536.5C 447.773,538.574 447.939,540.574 448.5,542.5C 448.167,542.833 447.833,543.167 447.5,543.5C 446.265,542.66 445.265,541.66 444.5,540.5 Z"/></g>
<g><path style="opacity:1" fill="#c0cec9" d="M 444.5,536.5 C 446.337,536.639 446.67,537.306 445.5,538.5C 444.702,538.043 444.369,537.376 444.5,536.5 Z"/></g>
<g><path style="opacity:1" fill="#353837" d="M 471.5,535.5 C 472.947,536.134 473.613,537.301 473.5,539C 473.613,540.699 472.947,541.866 471.5,542.5C 470.167,542.5 468.833,542.5 467.5,542.5C 467.5,540.167 467.5,537.833 467.5,535.5C 468.833,535.5 470.167,535.5 471.5,535.5 Z"/></g>
<g><path style="opacity:1" fill="#c8d7d1" d="M 468.5,536.5 C 471.084,537.048 472.084,538.715 471.5,541.5C 470.5,541.5 469.5,541.5 468.5,541.5C 468.5,539.833 468.5,538.167 468.5,536.5 Z"/></g>
<g><path style="opacity:1" fill="#393c3b" d="M 451.5,535.5 C 452.558,536.6 453.392,537.934 454,539.5C 455.102,534.27 455.935,534.27 456.5,539.5C 456.167,540.833 455.833,542.167 455.5,543.5C 453.854,542.221 452.687,540.555 452,538.5C 451.51,539.793 451.343,541.127 451.5,542.5C 450.167,540.167 450.167,537.833 451.5,535.5 Z"/></g>
<g><path style="opacity:1" fill="#464a48" d="M 415.5,541.5 C 414.075,543.031 413.409,542.698 413.5,540.5C 414.038,538.883 414.371,537.216 414.5,535.5C 415.833,535.5 417.167,535.5 418.5,535.5C 418.511,537.547 418.844,539.547 419.5,541.5C 419.167,542.167 418.833,542.833 418.5,543.5C 417.735,542.388 416.735,541.721 415.5,541.5 Z"/></g>
<g><path style="opacity:1" fill="#afbcb7" d="M 427.5,535.5 C 431.634,534.515 435.968,534.182 440.5,534.5C 440.5,536.833 440.5,539.167 440.5,541.5C 439.5,541.5 438.5,541.5 437.5,541.5C 436.957,541.44 436.624,541.107 436.5,540.5C 437.376,539.749 438.376,539.249 439.5,539C 438.376,538.751 437.376,538.251 436.5,537.5C 440.374,535.998 440.041,535.331 435.5,535.5C 435.5,537.833 435.5,540.167 435.5,542.5C 435.5,542.833 435.5,543.167 435.5,543.5C 434.833,541.167 434.167,538.833 433.5,536.5C 431.735,535.539 429.735,535.205 427.5,535.5 Z"/></g>
<g><path style="opacity:1" fill="#323433" d="M 406.5,535.5 C 407.5,540.833 408.5,540.833 409.5,535.5C 410.725,536.152 411.392,537.319 411.5,539C 411.333,540.167 411.167,541.333 411,542.5C 410.701,539.202 409.867,538.868 408.5,541.5C 408.19,542.738 407.69,542.738 407,541.5C 406.667,540.5 406.333,539.5 406,538.5C 405.802,540.382 405.302,542.048 404.5,543.5C 403.964,540.302 404.631,537.635 406.5,535.5 Z"/></g>
<g><path style="opacity:1" fill="#545957" d="M 437.5,541.5 C 438.5,541.5 439.5,541.5 440.5,541.5C 439.448,543.256 437.781,543.923 435.5,543.5C 435.5,543.167 435.5,542.833 435.5,542.5C 436.492,542.672 437.158,542.338 437.5,541.5 Z"/></g>
</svg>
