<?xml version="1.0" encoding="UTF-8"?>
<!DOCTYPE svg PUBLIC "-//W3C//DTD SVG 1.1//EN" "http://www.w3.org/Graphics/SVG/1.1/DTD/svg11.dtd">
<svg xmlns="http://www.w3.org/2000/svg" version="1.1" width="64px" height="64px" style="shape-rendering:geometricPrecision; text-rendering:geometricPrecision; image-rendering:optimizeQuality; fill-rule:evenodd; clip-rule:evenodd" xmlns:xlink="http://www.w3.org/1999/xlink">
<g><path style="opacity:1" fill="#f4f9f7" d="M 38.5,16.5 C 38.5,17.1667 38.5,17.8333 38.5,18.5C 35.7026,18.0334 34.3692,16.3667 34.5,13.5C 32.5,13.5 30.5,13.5 28.5,13.5C 27.4238,18.1198 24.5904,19.4531 20,17.5C 15.4737,18.9671 14.6404,21.4671 17.5,25C 17.2568,25.9021 16.9234,26.7354 16.5,27.5C 15.1667,28.1667 13.8333,28.8333 12.5,29.5C 10.629,29.8588 9.12901,30.8588 8,32.5C 8.44529,38.1259 8.94529,43.6259 9.5,49C 8.90558,49.4643 8.23891,49.631 7.5,49.5C 1.93808,41.1887 0.438082,32.1887 3,22.5C 3.67076,21.7476 4.5041,21.4142 5.5,21.5C 6.93464,22.8241 7.93464,24.4908 8.5,26.5C 10.8333,27.8333 13.1667,27.8333 15.5,26.5C 13.5,25.8333 11.5,25.1667 9.5,24.5C 8.87277,23.5832 8.53944,22.5832 8.5,21.5C 9.98741,18.788 9.32074,16.6213 6.5,15C 8.66667,12.1667 11.1667,9.66667 14,7.5C 14.3742,8.41623 14.8742,9.24956 15.5,10C 18.5419,9.47713 21.5419,9.64379 24.5,10.5C 24.3379,12.5273 24.5045,14.5273 25,16.5C 25.8141,14.0982 25.6474,11.7649 24.5,9.5C 23.2638,8.75415 21.9305,8.42082 20.5,8.5C 20.5792,7.06953 20.2458,5.73619 19.5,4.5C 22.2659,2.87132 25.2659,2.20465 28.5,2.5C 29.6195,5.38713 30.6195,8.38713 31.5,11.5C 32.3805,8.38713 33.3805,5.38713 34.5,2.5C 37.2706,2.42074 39.9373,2.92074 42.5,4C 42.9662,5.29881 42.9662,6.79881 42.5,8.5C 36.4266,9.15829 35.0933,11.825 38.5,16.5 Z"/></g>
<g><path style="opacity:1" fill="#539a7f" d="M 38.5,18.5 C 42.2464,16.5815 45.2464,17.4148 47.5,21C 45.5424,23.0028 45.2091,25.1695 46.5,27.5C 44.5,27.5 42.5,27.5 40.5,27.5C 37.3657,22.8809 33.0324,21.3809 27.5,23C 25.34,24.332 23.34,25.832 21.5,27.5C 19.8333,27.5 18.1667,27.5 16.5,27.5C 16.9234,26.7354 17.2568,25.9021 17.5,25C 14.6404,21.4671 15.4737,18.9671 20,17.5C 24.5904,19.4531 27.4238,18.1198 28.5,13.5C 30.5,13.5 32.5,13.5 34.5,13.5C 34.3692,16.3667 35.7026,18.0334 38.5,18.5 Z"/></g>
<g><path style="opacity:1" fill="#589d83" d="M 22.5,-0.5 C 28.5,-0.5 34.5,-0.5 40.5,-0.5C 43.8104,0.603843 46.8104,2.27051 49.5,4.5C 48.8843,5.20222 48.8843,6.20222 49.5,7.5C 48.7326,8.17197 48.0659,9.0053 47.5,10C 44.4581,9.47713 41.4581,9.64379 38.5,10.5C 38.5,12.5 38.5,14.5 38.5,16.5C 35.0933,11.825 36.4266,9.15829 42.5,8.5C 42.9662,6.79881 42.9662,5.29881 42.5,4C 39.9373,2.92074 37.2706,2.42074 34.5,2.5C 33.3805,5.38713 32.3805,8.38713 31.5,11.5C 30.6195,8.38713 29.6195,5.38713 28.5,2.5C 25.2659,2.20465 22.2659,2.87132 19.5,4.5C 20.2458,5.73619 20.5792,7.06953 20.5,8.5C 21.9305,8.42082 23.2638,8.75415 24.5,9.5C 25.6474,11.7649 25.8141,14.0982 25,16.5C 24.5045,14.5273 24.3379,12.5273 24.5,10.5C 21.5419,9.64379 18.5419,9.47713 15.5,10C 14.8742,9.24956 14.3742,8.41623 14,7.5C 11.1667,9.66667 8.66667,12.1667 6.5,15C 9.32074,16.6213 9.98741,18.788 8.5,21.5C 7.5,21.5 6.5,21.5 5.5,21.5C 4.5041,21.4142 3.67076,21.7476 3,22.5C 0.438082,32.1887 1.93808,41.1887 7.5,49.5C 6.95691,49.56 6.62358,49.8933 6.5,50.5C 7.91813,53.8206 9.5848,54.4872 11.5,52.5C 12.1667,53.5 12.8333,54.5 13.5,55.5C 12.7611,55.369 12.0944,55.5357 11.5,56C 14.0048,57.7533 16.6714,59.2533 19.5,60.5C 20.1067,60.3764 20.44,60.0431 20.5,59.5C 21.4916,59.3284 22.1583,59.6618 22.5,60.5C 22.5,61.1667 22.5,61.8333 22.5,62.5C 10.9068,59.2395 3.24012,51.9062 -0.5,40.5C -0.5,34.5 -0.5,28.5 -0.5,22.5C 3.5,11.1667 11.1667,3.5 22.5,-0.5 Z"/></g>
<g><path style="opacity:1" fill="#f7faf9" d="M 49.5,7.5 C 52.3055,9.47503 54.6388,11.975 56.5,15C 53.261,17.2188 52.5943,20.0522 54.5,23.5C 52.4324,24.8647 50.099,25.8647 47.5,26.5C 50.8862,28.1012 53.5528,27.4345 55.5,24.5C 55.999,21.6108 57.499,20.9442 60,22.5C 62.5162,31.7661 61.1829,40.4327 56,48.5C 55.0975,47.2986 53.9308,46.4652 52.5,46C 49.7737,45.8184 47.1071,45.3184 44.5,44.5C 47.4946,43.8672 50.328,42.8672 53,41.5C 54.2749,37.511 55.4416,33.511 56.5,29.5C 53.1667,28.8333 49.8333,28.1667 46.5,27.5C 45.2091,25.1695 45.5424,23.0028 47.5,21C 45.2464,17.4148 42.2464,16.5815 38.5,18.5C 38.5,17.8333 38.5,17.1667 38.5,16.5C 38.5,14.5 38.5,12.5 38.5,10.5C 41.4581,9.64379 44.4581,9.47713 47.5,10C 48.0659,9.0053 48.7326,8.17197 49.5,7.5 Z"/></g>
<g><path style="opacity:1" fill="#7bb29e" d="M 5.5,21.5 C 6.5,21.5 7.5,21.5 8.5,21.5C 8.53944,22.5832 8.87277,23.5832 9.5,24.5C 11.5,25.1667 13.5,25.8333 15.5,26.5C 13.1667,27.8333 10.8333,27.8333 8.5,26.5C 7.93464,24.4908 6.93464,22.8241 5.5,21.5 Z"/></g>
<g><path style="opacity:1" fill="#7bb29e" d="M 54.5,23.5 C 54.5,24.1667 54.8333,24.5 55.5,24.5C 53.5528,27.4345 50.8862,28.1012 47.5,26.5C 50.099,25.8647 52.4324,24.8647 54.5,23.5 Z"/></g>
<g><path style="opacity:1" fill="#eff5f3" d="M 40.5,27.5 C 41.5,28.1667 42.5,28.8333 43.5,29.5C 40.1549,30.3481 38.4883,32.5148 38.5,36C 40.3263,40.0855 40.993,44.2522 40.5,48.5C 36.9264,51.8512 36.593,55.5178 39.5,59.5C 33.9604,61.7534 28.2937,62.0868 22.5,60.5C 22.1583,59.6618 21.4916,59.3284 20.5,59.5C 24.24,56.3573 25.4066,52.3573 24,47.5C 20.6751,46.0564 17.1751,45.0564 13.5,44.5C 16.7335,43.9591 19.5669,42.6258 22,40.5C 23.3559,36.8655 24.5225,33.1989 25.5,29.5C 22.8333,29.5 20.1667,29.5 17.5,29.5C 18.8333,28.8333 20.1667,28.1667 21.5,27.5C 23.34,25.832 25.34,24.332 27.5,23C 33.0324,21.3809 37.3657,22.8809 40.5,27.5 Z"/></g>
<g><path style="opacity:1" fill="#579d82" d="M 28.5,23.5 C 32.3941,23.1863 35.7274,24.353 38.5,27C 33.8333,27.6667 29.1667,27.6667 24.5,27C 25.7305,25.5952 27.0639,24.4286 28.5,23.5 Z"/></g>
<g><path style="opacity:1" fill="#abcec1" d="M 16.5,27.5 C 18.1667,27.5 19.8333,27.5 21.5,27.5C 20.1667,28.1667 18.8333,28.8333 17.5,29.5C 15.8333,29.5 14.1667,29.5 12.5,29.5C 13.8333,28.8333 15.1667,28.1667 16.5,27.5 Z"/></g>
<g><path style="opacity:1" fill="#cae0d8" d="M 40.5,27.5 C 42.5,27.5 44.5,27.5 46.5,27.5C 49.8333,28.1667 53.1667,28.8333 56.5,29.5C 52.1667,29.5 47.8333,29.5 43.5,29.5C 42.5,28.8333 41.5,28.1667 40.5,27.5 Z"/></g>
<g><path style="opacity:1" fill="#51997e" d="M 12.5,29.5 C 14.1667,29.5 15.8333,29.5 17.5,29.5C 20.1667,29.5 22.8333,29.5 25.5,29.5C 24.5225,33.1989 23.3559,36.8655 22,40.5C 19.5669,42.6258 16.7335,43.9591 13.5,44.5C 17.1751,45.0564 20.6751,46.0564 24,47.5C 25.4066,52.3573 24.24,56.3573 20.5,59.5C 20.44,60.0431 20.1067,60.3764 19.5,60.5C 16.6714,59.2533 14.0048,57.7533 11.5,56C 12.0944,55.5357 12.7611,55.369 13.5,55.5C 16.9694,56.1128 18.9694,54.7794 19.5,51.5C 16.6146,51.1936 13.9479,51.5269 11.5,52.5C 9.5848,54.4872 7.91813,53.8206 6.5,50.5C 6.62358,49.8933 6.95691,49.56 7.5,49.5C 8.23891,49.631 8.90558,49.4643 9.5,49C 8.94529,43.6259 8.44529,38.1259 8,32.5C 9.12901,30.8588 10.629,29.8588 12.5,29.5 Z"/></g>
<g><path style="opacity:1" fill="#539a80" d="M 49.5,4.5 C 56.5729,8.65382 61.2395,14.6538 63.5,22.5C 63.5,28.5 63.5,34.5 63.5,40.5C 59.5259,51.8074 51.8593,59.4741 40.5,63.5C 34.5,63.5 28.5,63.5 22.5,63.5C 22.5,63.1667 22.5,62.8333 22.5,62.5C 22.5,61.8333 22.5,61.1667 22.5,60.5C 28.2937,62.0868 33.9604,61.7534 39.5,59.5C 36.593,55.5178 36.9264,51.8512 40.5,48.5C 40.993,44.2522 40.3263,40.0855 38.5,36C 38.4883,32.5148 40.1549,30.3481 43.5,29.5C 47.8333,29.5 52.1667,29.5 56.5,29.5C 55.4416,33.511 54.2749,37.511 53,41.5C 50.328,42.8672 47.4946,43.8672 44.5,44.5C 47.1071,45.3184 49.7737,45.8184 52.5,46C 53.9308,46.4652 55.0975,47.2986 56,48.5C 61.1829,40.4327 62.5162,31.7661 60,22.5C 57.499,20.9442 55.999,21.6108 55.5,24.5C 54.8333,24.5 54.5,24.1667 54.5,23.5C 52.5943,20.0522 53.261,17.2188 56.5,15C 54.6388,11.975 52.3055,9.47503 49.5,7.5C 48.8843,6.20222 48.8843,5.20222 49.5,4.5 Z"/></g>
<g><path style="opacity:1" fill="#4f987d" d="M 28.5,29.5 C 30.5,29.5 32.5,29.5 34.5,29.5C 34.5,36.5 34.5,43.5 34.5,50.5C 32.5,50.5 30.5,50.5 28.5,50.5C 28.5,43.5 28.5,36.5 28.5,29.5 Z"/></g>
<g><path style="opacity:1" fill="#ebf3f0" d="M 13.5,33.5 C 17.35,33.7007 18.35,35.5341 16.5,39C 15.552,39.4828 14.552,39.6495 13.5,39.5C 13.5,37.5 13.5,35.5 13.5,33.5 Z"/></g>
<g><path style="opacity:1" fill="#edf4f2" d="M 44.5,33.5 C 45.8333,33.5 47.1667,33.5 48.5,33.5C 48.9492,35.9775 48.2825,37.9775 46.5,39.5C 44.7175,37.9775 44.0508,35.9775 44.5,33.5 Z"/></g>
<g><path style="opacity:1" fill="#eef5f2" d="M 13.5,55.5 C 12.8333,54.5 12.1667,53.5 11.5,52.5C 13.9479,51.5269 16.6146,51.1936 19.5,51.5C 18.9694,54.7794 16.9694,56.1128 13.5,55.5 Z"/></g>
<g><path style="opacity:1" fill="#ecf4f1" d="M 43.5,51.5 C 45.8333,51.5 48.1667,51.5 50.5,51.5C 50.4122,54.3087 48.9122,55.642 46,55.5C 42.812,55.4458 41.9786,54.1125 43.5,51.5 Z"/></g>
</svg>
